<svg width="36" height="36" viewBox="0 0 36 36" fill="none" xmlns="http://www.w3.org/2000/svg">
<path fill-rule="evenodd" clip-rule="evenodd" d="M35.28 18.4092C35.28 17.1328 35.1654 15.9055 34.9527 14.7273H18V21.6901H27.6872C27.27 23.9401 26.0018 25.8464 24.0954 27.1228V31.6392H29.9127C33.3163 28.5055 35.28 23.891 35.28 18.4092Z" fill="#4285F4"/>
<path fill-rule="evenodd" clip-rule="evenodd" d="M17.9999 36C22.8599 36 26.9345 34.3882 29.9126 31.6391L24.0954 27.1227C22.4835 28.2027 20.4217 28.8409 17.9999 28.8409C13.3117 28.8409 9.34355 25.6745 7.92809 21.42H1.91446V26.0836C4.87628 31.9664 10.9635 36 17.9999 36Z" fill="#34A853"/>
<path fill-rule="evenodd" clip-rule="evenodd" d="M7.92818 21.4201C7.56818 20.3401 7.36363 19.1864 7.36363 18.0001C7.36363 16.8137 7.56818 15.6601 7.92818 14.5801V9.91643H1.91454C0.695454 12.3464 0 15.0955 0 18.0001C0 20.9046 0.695454 23.6537 1.91454 26.0837L7.92818 21.4201Z" fill="#FBBC05"/>
<path fill-rule="evenodd" clip-rule="evenodd" d="M17.9999 7.15915C20.6426 7.15915 23.0154 8.06733 24.8808 9.85097L30.0435 4.68824C26.9263 1.7837 22.8517 6.10352e-05 17.9999 6.10352e-05C10.9635 6.10352e-05 4.87628 4.0337 1.91446 9.91642L7.92809 14.5801C9.34355 10.3255 13.3117 7.15915 17.9999 7.15915Z" fill="#EA4335"/>
</svg>
